<svg xmlns="http://www.w3.org/2000/svg" viewBox="0 0 512 512">
    <rect width="512" height="512" rx="100" fill="#007bff"/>

    <path fill="#ffffff" d="M464 144.1c-16.9 7.5-35.1 12.6-54.1 14.9 19.5-11.7 34.4-30.1 41.5-52.1-18.2 10.8-38.3 18.6-59.6 22.8-17.2-18.3-41.6-29.7-68.7-29.7-52 0-94.1 42.1-94.1 94.1 0 7.4.8 14.5 2.5 21.4-78.2-3.9-147.5-41.4-193.9-98.3-8.1 13.9-12.7 30.1-12.7 47.3 0 32.6 16.6 61.4 41.8 78.3-15.4-.5-29.9-4.7-42.7-11.8v1.2c0 45.6 32.4 83.6 75.4 92.2-7.9 2.1-16.2 3.3-24.8 3.3-6 0-11.9-.6-17.6-1.7 11.9 37.4 46.6 64.6 87.7 65.4-32.2 25.2-72.7 40.2-116.8 40.2-7.6 0-15.1-.4-22.5-1.3 41.6 26.7 91 42.3 144.2 42.3 173 0 267.6-143.3 267.6-267.6 0-4.1-.1-8.1-.3-12.2 18.3-13.2 34.2-29.7 46.9-48.7z"/>
</svg>